<svg t="1586768647571" class="icon" viewBox="0 0 1024 1024" version="1.1" xmlns="http://www.w3.org/2000/svg" p-id="6985" width="200" height="200"><path d="M864.121625 607.997625c-0.265999 1.095996-0.752997 2.083992-1.033996 3.179988a31.190878 31.190878 0 0 1-4.075985 12.553951c-42.489834 146.959426-165.124355 256.996996-314.84277 270.779942v65.489744h31.958876a31.979875 31.979875 0 0 1 31.958875 31.999875 31.979875 31.979875 0 0 1-31.958875 31.999875H448.302249a31.979875 31.979875 0 0 1-31.958875-31.999875 31.979875 31.979875 0 0 1 31.959875-31.999875h31.952875v-65.489744c-149.723415-13.777946-272.351936-123.816516-314.84277-270.779942a31.164878 31.164878 0 0 1-4.075984-12.553951c-0.275999-1.095996-0.767997-2.083992-1.033996-3.179988h0.393998c0-17.673931 14.305944-31.999875 31.959875-31.999875s31.957875 14.325944 31.957876 31.999875c0 1.013996-0.479998 1.863993-0.577998 2.851989 39.495846 128.286499 153.455401 221.142136 288.177874 221.142136 134.722474 0 248.688029-92.850637 288.178874-221.142136-0.098-0.982996-0.579998-1.842993-0.579997-2.851989 0-17.673931 14.305944-31.994875 31.959875-31.994875s31.958875 14.325944 31.958875 31.994875h0.388999zM512.214999 767.992c-123.539517 0-223.697126-100.285608-223.697126-223.994125V223.999125c0-123.714517 100.157609-223.999125 223.697126-223.999125 123.545517 0 223.697126 100.284608 223.697126 223.994125V543.987875c-0.005 123.719517-100.151609 224.004125-223.697126 224.004125z" fill="" p-id="6986"></path></svg>