<?xml version="1.0" encoding="UTF-8"?>
<svg width="28px" height="28px" viewBox="0 0 28 28" version="1.1" xmlns="http://www.w3.org/2000/svg" xmlns:xlink="http://www.w3.org/1999/xlink">
    <!-- Generator: Sketch 45.1 (43504) - http://www.bohemiancoding.com/sketch -->
    <title>Clear</title>
    <desc>Created with Sketch.</desc>
    <defs></defs>
    <g id="nav_bar" stroke="none" stroke-width="1" fill="none" fill-rule="evenodd">
        <g id="nav_bar_搜索" transform="translate(-476.000000, -70.000000)" fill="#8F8E94">
            <path d="M492.12132,84 L495.656854,80.4644661 C496.242641,79.8786797 496.242641,78.9289322 495.656854,78.3431458 C495.071068,77.7573593 494.12132,77.7573593 493.535534,78.3431458 L490,81.8786797 L486.464466,78.3431458 C485.87868,77.7573593 484.928932,77.7573593 484.343146,78.3431458 C483.757359,78.9289322 483.757359,79.8786797 484.343146,80.4644661 L487.87868,84 L484.343146,87.5355339 C483.757359,88.1213203 483.757359,89.0710678 484.343146,89.6568542 C484.928932,90.2426407 485.87868,90.2426407 486.464466,89.6568542 L490,86.1213203 L493.535534,89.6568542 C494.12132,90.2426407 495.071068,90.2426407 495.656854,89.6568542 C496.242641,89.0710678 496.242641,88.1213203 495.656854,87.5355339 L492.12132,84 Z M490,98 C482.268014,98 476,91.7319865 476,84 C476,76.2680135 482.268014,70 490,70 C497.731986,70 504,76.2680135 504,84 C504,91.7319865 497.731986,98 490,98 Z" id="Clear"></path>
        </g>
    </g>
</svg>