<svg t="1586852856594" class="icon" viewBox="0 0 1024 1024" version="1.1" xmlns="http://www.w3.org/2000/svg" p-id="32611" width="32" height="32"><path d="M829.952 816.128c-18.944 0-33.792-15.36-33.792-33.792 0-18.944 15.36-33.792 33.792-33.792h80.384c9.216 0 16.896-7.68 16.896-16.896v-419.84c0-9.216-7.68-16.896-16.896-16.896H113.664c-9.216 0-16.896 7.68-16.896 16.896v419.328c0 9.216 7.68 16.896 16.896 16.896h80.384c18.944 0 33.792 15.36 33.792 33.792 0 18.944-15.36 33.792-33.792 33.792H113.664c-46.592 0-84.992-37.888-84.992-84.992V311.808c0-46.592 37.888-84.992 84.992-84.992h796.16c46.592 0 84.992 37.888 84.992 84.992v419.328c0 46.592-37.888 84.992-84.992 84.992h-79.872z" p-id="32612"></path><path d="M272.896 998.4c-46.592 0-84.992-37.888-84.992-84.992v-315.904c0-18.944 15.36-33.792 33.792-33.792 18.944 0 33.792 15.36 33.792 33.792v315.904c0 9.216 7.68 16.896 16.896 16.896H752.64c9.216 0 16.896-7.68 16.896-16.896v-318.464c0-18.944 15.36-33.792 33.792-33.792 18.944 0 33.792 15.36 33.792 33.792v318.464c0 46.592-37.888 84.992-84.992 84.992H272.896zM221.184 294.912c-18.944 0-33.792-15.36-33.792-33.792V123.392C187.392 76.8 225.28 38.912 272.384 38.912h482.304c46.592 0 84.992 37.888 84.992 84.992V261.12c0 18.944-15.36 33.792-33.792 33.792-18.944 0-33.792-15.36-33.792-33.792V123.392c0-9.216-7.68-16.896-16.896-16.896H272.384c-9.216 0-16.896 7.68-16.896 16.896V261.12c-0.512 18.432-15.36 33.792-34.304 33.792z" p-id="32613"></path><path d="M348.16 812.544c-16.896 0-30.208-13.824-30.208-30.208 0-16.896 13.824-30.208 30.208-30.208h327.68c16.896 0 30.208 13.824 30.208 30.208 0 16.896-13.824 30.208-30.208 30.208H348.16z m-171.52-185.344c-18.944 0-33.792-15.36-33.792-33.792 0-18.944 15.36-33.792 33.792-33.792h670.72c9.216 0 17.408 3.584 23.552 10.24 6.144 6.656 9.728 15.36 9.728 24.064 0 18.432-14.848 33.28-33.28 33.28h-670.72z m619.52-163.84c-24.064 0-43.52-19.456-43.52-43.52s19.456-43.52 43.52-43.52 43.52 19.456 43.52 43.52c0 23.552-19.456 43.52-43.52 43.52z" p-id="32614"></path></svg>