<?xml version="1.0" encoding="UTF-8"?>
<svg width="102px" height="83px" viewBox="0 0 102 83" version="1.1" xmlns="http://www.w3.org/2000/svg" xmlns:xlink="http://www.w3.org/1999/xlink">
    <!-- Generator: Sketch 45.1 (43504) - http://www.bohemiancoding.com/sketch -->
    <title>Shape</title>
    <desc>Created with Sketch.</desc>
    <defs></defs>
    <g id="Page-1" stroke="none" stroke-width="1" fill="none" fill-rule="evenodd">
        <g id="管理3" transform="translate(-1129.000000, -132.000000)" fill-rule="nonzero" fill="#FFFFFF">
            <g id="Rounded-Rectangle-1" transform="translate(1080.000000, 88.000000)">
                <path d="M84.2449061,99.3303109 C86.2832792,96.8438939 88.6271473,94.0759084 91.2438561,91.0964416 C98.7186759,82.5853775 106.889924,74.0742715 115.500219,66.1224013 C124.648809,57.6733993 133.768183,50.3527552 142.715955,44.4905944 C144.04565,43.6194408 145.82404,43.9367366 146.770423,45.213982 L149.699423,49.166982 C150.691464,50.505847 150.402301,52.3966275 149.055451,53.3777993 C148.939731,53.4621001 148.699273,53.6412154 148.342413,53.913279 C147.7373,54.3746061 147.032397,54.92519 146.236044,55.5631568 C143.949259,57.3951237 141.396273,59.5544339 138.643794,62.0259742 C130.769067,69.0969499 122.891283,77.2385139 115.54331,86.3265686 C105.655219,98.556269 97.5137058,111.548125 91.7148313,125.155151 C90.895409,127.077921 88.4101591,127.594473 86.8924186,126.157476 L49.9374186,91.168476 C48.7389214,90.0337387 48.6821187,88.1440165 49.8102961,86.9393423 L55.4292961,80.9393423 C56.5030256,79.7928079 58.2793755,79.6686538 59.5021556,80.6546788 L83.6164615,100.099965 C83.8176425,99.8525494 84.0271625,99.5959155 84.2449061,99.3303109 Z" id="Shape"></path>
            </g>
        </g>
    </g>
</svg>