<svg t="1587374072666" class="icon" viewBox="0 0 1376 1024" version="1.1" xmlns="http://www.w3.org/2000/svg" p-id="7126" width="200" height="200"><path d="M1266.116292 463.754565l-148.102264 146.606282c-5.98393 5.98393-13.276844 8.975895-21.691746 8.975895s-15.707816-2.991965-21.691746-8.975895L928.024254 463.754565c-5.98393-5.98393-8.788897-11.406866-8.227903-16.455807 0.560993-5.048941 1.495982-8.414901 2.991965-10.471877s5.235939-5.98393 11.219868-11.96786h134.638422c-8.040906-38.895544-20.943755-76.108108-38.895544-111.450694-17.95179-35.342586-40.204529-67.319211-66.57122-95.742878-26.366691-28.423667-56.099343-53.294375-89.010957-74.799123s-69.002191-37.58656-108.458729-48.61943c-39.456538-11.032871-80.035062-16.455807-121.922571-16.455808-40.95252 0-80.22206 5.235939-118.182615 15.707816s-73.116143 25.431702-105.466764 44.879474c-32.350621 19.447772-61.896275 42.822498-88.262966 70.311176C305.508549 236.178232 282.694817 266.284879 263.808038 299.196494L190.504897 270.772827C234.449382 189.054785 296.719652 123.418554 377.502706 74.051132S547.109718 0 643.787585 0c83.775018 0 162.1271 18.699781 234.869248 56.099343 72.742148 37.399562 132.581446 88.449963 179.517896 153.338203 46.93645 64.88824 76.856099 136.695398 89.758948 215.421475h110.702703c6.918919 6.918919 11.219869 13.65084 12.715851 20.195764 1.495982 6.544923-0.186998 12.715851-5.235939 18.69978zM214.440617 451.038714l148.102264 146.606282c3.926954 3.926954 5.98393 8.414901 5.98393 13.463843s-0.934989 9.536888-2.991965 13.463842c-2.056976 3.926954-5.422936 8.040906-10.471877 11.96786h-127.15851c25.992695 90.693937 77.230095 165.119065 154.086194 222.901387s163.997078 86.766983 261.796932 86.766984c18.886779 0 37.399562-1.308985 55.351352-3.739957 17.95179-2.430972 35.716581-5.796932 53.107377-9.723886 17.390796-3.926954 34.407597-9.162893 50.863404-15.707816s32.350621-14.024836 47.871439-22.439737 30.480643-17.764792 44.879474-27.675675c14.398831-9.910884 27.862673-20.943755 40.391527-32.911615 12.528853-11.96786 24.496713-24.496713 35.903579-37.399561s22.252739-26.366691 32.163623-40.391527l73.303141 28.423667c-45.814463 72.742148-107.149744 130.898466-184.005843 174.281958s-160.070124 65.075237-249.829073 65.075237c-119.678598 0-225.706355-36.464573-317.896274-109.20672s-151.842221-165.493061-178.769905-278.252739h-116.686633c-0.934989 0-2.056976-0.934989-2.991965-2.991965-6.918919-5.98393-11.032871-10.658875-11.96786-14.211834-0.934989-3.552958 2.056976-10.658875 8.975895-21.691746l146.606282-146.606282c5.98393-5.048941 13.276844-7.479912 21.691746-7.479912s15.707816 2.430972 21.691746 7.479912z" fill="#005CAC" p-id="7127"></path></svg>