<svg t="1586849125271" class="icon" viewBox="0 0 1024 1024" version="1.1" xmlns="http://www.w3.org/2000/svg" p-id="25991" width="32" height="32"><path d="M270.3872 476.16a41.472 41.472 0 0 1 10.7008-9.0112l400.384-400.7424A49.8176 49.8176 0 0 1 717.1584 51.2c12.8 0 25.6 5.0688 35.7888 14.6944 19.8144 19.456 20.0192 51.2 0.512 70.9632l-375.1936 375.6032 374.784 373.8112a50.9952 50.9952 0 0 1 0.512 71.5264c-19.2512 19.9168-51.2 19.9168-71.0144 0.512L276.992 553.7792a49.9712 49.9712 0 0 1-20.8384-43.264v-1.536A50.688 50.688 0 0 1 270.336 476.16z" p-id="25992" fill="#2c2c2c"></path></svg>