<svg t="1586748891781" class="icon" viewBox="0 0 1024 1024" version="1.1" xmlns="http://www.w3.org/2000/svg" p-id="9222" width="32" height="32"><path d="M485.888 333.312c-12.288 12.288-32.256 12.288-45.056 0-12.288-12.288-12.288-32.256 0-45.056L574.976 153.6c40.448-39.936 93.184-59.904 145.408-59.904 113.152 0 204.288 91.648 204.288 205.312 0 52.224-19.968 104.96-59.392 144.896l-146.432 146.432c-39.936 38.912-91.648 58.368-143.36 58.368-72.704 0-138.752-38.4-175.616-99.84v-0.512c-9.216-14.848-15.872-30.208-20.992-46.08-5.12-16.896 4.608-34.816 20.992-39.424 17.408-5.12 34.816 4.608 39.424 21.504 3.072 11.264 8.192 22.016 13.824 32.256 25.088 42.496 71.68 69.12 121.344 69.12 36.352 0 71.68-13.824 99.328-40.448l146.432-146.432c27.648-27.648 40.96-64 40.96-99.84 0-78.336-62.976-141.312-141.312-141.312-36.352 0-72.704 13.824-99.84 40.96h-0.512L485.888 333.312z m52.736 347.648l-134.656 134.656c-54.784 54.784-145.92 54.784-200.192 0-54.784-54.784-54.784-145.408 0-200.192l144.896-145.408c27.648-27.136 63.488-40.96 100.352-40.96 36.352 0 72.704 13.824 100.352 40.96v0.512c8.704 8.192 15.36 17.408 20.992 27.648 6.144 9.728 10.752 20.992 13.824 31.744 5.12 16.896 22.528 26.624 38.912 21.504 16.896-5.12 26.624-22.528 21.504-39.424-5.12-16.384-11.776-31.744-19.968-46.08-9.216-14.336-19.456-28.16-31.232-39.936-40.448-39.936-92.672-59.904-145.408-59.904-52.736 0-104.96 19.968-145.408 59.904L158.72 570.368c-78.848 79.36-78.848 210.944 0 290.304l2.048 1.536c79.36 77.312 208.384 76.8 287.232-1.024v-0.512l0.512-0.512 134.656-134.656c12.288-12.8 12.288-32.256-0.512-45.056-11.776-11.776-31.744-11.776-44.032 0.512z" p-id="9223"></path><path d="M303.616 922.624c-52.224 0-104.96-19.456-144.896-58.368l-2.048-1.536c-80.896-81.408-80.896-213.504-0.512-294.4l144.896-144.896c39.424-38.912 91.648-60.416 146.944-60.416s107.52 21.504 146.944 60.416c11.264 11.776 22.016 25.6 31.744 40.448 8.704 15.36 15.36 30.72 19.968 46.592 5.12 17.92-5.12 37.376-23.552 42.496-8.704 2.56-17.92 1.536-26.112-2.56-8.192-4.608-13.824-11.776-16.384-20.48-3.584-11.776-8.192-22.016-13.824-30.72-6.656-10.752-13.312-19.456-20.992-27.136l-1.024-0.512V471.04c-26.112-25.6-60.928-39.424-97.792-39.424-36.864 0-72.192 14.336-98.304 39.936l-144.896 145.408c-26.112 26.112-40.448 60.928-40.448 98.304 0 37.376 14.336 72.192 40.448 98.304l0.512 1.024c25.6 25.6 60.416 39.424 97.28 39.424 37.376 0 72.704-14.336 98.304-40.448l134.656-134.656c6.144-6.144 14.848-9.728 24.064-9.728 9.216 0 17.92 3.584 24.064 9.728 13.312 13.824 13.824 34.816 0.512 48.64l-134.656 134.144-0.512 1.024c-38.4 39.936-91.136 59.904-144.384 59.904zM448.512 368.128c-54.272 0-104.96 20.992-143.36 58.88l-144.896 144.896c-78.848 78.848-78.848 207.36 0 286.72l2.048 1.536c78.336 76.288 205.312 76.288 283.648 0l1.024-1.536 134.656-134.656c11.264-11.776 11.264-29.696-0.512-41.472-5.632-5.632-12.8-8.192-20.48-8.192s-15.36 3.072-20.48 8.192l-134.656 134.656c-27.136 27.136-62.976 41.984-102.4 41.984-38.912 0-74.752-14.848-101.888-41.472l-0.512-1.024c-26.624-26.624-40.96-62.464-40.96-101.376 0-38.912 14.848-74.752 41.984-101.888l144.896-145.408c27.648-26.624 63.488-41.472 101.888-41.472 38.4 0 74.752 14.848 101.888 41.472l1.024 0.512v0.512c7.68 7.68 14.336 16.384 20.992 27.136 5.632 9.216 10.752 19.968 14.336 32.256 2.048 7.68 7.168 13.824 13.824 17.408 6.656 3.584 14.336 4.608 22.016 2.56 15.36-4.608 24.576-20.992 19.968-36.352-4.608-15.36-11.264-30.72-19.456-45.568-9.216-14.848-19.456-28.16-30.72-39.424-38.912-37.888-89.6-58.88-143.872-58.88z m126.464 283.136c-72.192 0-140.288-38.912-177.664-100.864l-0.512-1.024c-8.192-13.824-15.36-29.184-20.48-46.08-5.12-18.432 5.12-37.376 23.04-42.496 18.944-5.12 37.376 4.608 43.008 23.04 3.072 10.24 7.68 20.992 13.824 31.232 25.088 41.984 70.656 67.584 119.296 67.584 36.352 0 71.168-13.824 97.28-39.424L819.2 396.8c26.112-26.112 40.448-60.928 40.448-98.304 0-76.288-62.464-138.752-138.752-138.752-37.376 0-72.192 14.336-97.792 40.448l-0.512 0.512h-0.512L487.424 335.36c-13.312 13.312-35.328 13.312-48.64 0-13.312-13.312-13.312-35.328 0-48.64L573.44 152.064c39.424-38.912 91.648-60.416 146.944-60.416 114.176 0 206.848 93.184 206.848 207.872 0 55.808-21.504 107.52-60.416 146.432l-146.432 146.432c-38.912 37.888-90.624 58.88-145.408 58.88z m-173.056-102.912c36.352 60.416 102.4 97.792 173.056 97.792 53.248 0 103.936-20.48 141.824-57.344l146.432-146.432c37.888-37.888 58.88-88.576 58.88-142.848 0-111.616-90.624-202.752-201.728-202.752-53.76 0-104.96 20.992-143.36 58.88L442.368 290.304c-11.264 11.264-11.264 29.696 0 41.472 11.776 11.264 30.208 11.264 41.472 0l135.168-135.168h0.512c26.624-26.624 62.464-40.96 100.864-40.96 79.36 0 143.872 64.512 143.872 143.872 0 38.4-14.848 74.752-41.984 101.888L675.84 547.328c-27.136 26.624-62.976 40.96-100.864 40.96-50.176 0-97.792-27.136-123.392-70.144-6.144-10.752-11.264-22.016-14.336-32.768-4.608-15.872-20.48-24.064-36.352-19.456-15.36 4.608-24.064 20.992-19.456 36.352 5.12 16.896 12.288 32.256 20.48 45.568v0.512z" p-id="9224"></path></svg>