<?xml version="1.0" encoding="UTF-8"?>
<svg width="128px" height="128px" viewBox="0 0 128 128" version="1.1" xmlns="http://www.w3.org/2000/svg" xmlns:xlink="http://www.w3.org/1999/xlink">
    <!-- Generator: Sketch 54.1 (76490) - https://sketchapp.com -->
    <title>Group 8</title>
    <desc>Created with Sketch.</desc>
    <defs>
        <circle id="path-1" cx="61.0615385" cy="61.0615385" r="61.0615385"></circle>
        <linearGradient x1="50%" y1="0%" x2="50%" y2="100%" id="linearGradient-3">
            <stop stop-color="#49D1FF" stop-opacity="0.71" offset="0%"></stop>
            <stop stop-color="#2FACFF" stop-opacity="0" offset="100%"></stop>
        </linearGradient>
    </defs>
    <g id="分享2" stroke="none" stroke-width="1" fill="none" fill-rule="evenodd">
        <g id="分享详情备份" transform="translate(-124.000000, -253.000000)">
            <g id="jiance" transform="translate(125.000000, 254.000000)">
                <g id="Group-8" transform="translate(1.938462, 1.938462)">
                    <mask id="mask-2" fill="white">
                        <use xlink:href="#path-1"></use>
                    </mask>
                    <circle stroke="#495B83" stroke-width="2" cx="61.0615385" cy="61.0615385" r="62.0615385"></circle>
                    <g id="Group-9" mask="url(#mask-2)">
                        <g transform="translate(47.492308, 46.523077)">
                            <circle id="Oval-4" stroke="#495B83" stroke-width="10" fill="none" cx="49.4307692" cy="49.4307692" r="35.7076923"></circle>
                            <path d="M43.9043706,14.5384615 L33.3925358,17.9539637 L24.4506349,24.4506349 L17.9539637,33.3925358 L14.5384615,43.9043706 L14.5384615,54.9571679 L17.9539637,65.4690027 L24.4506349,74.4109035 L33.3925358,80.9075747 L43.9043706,84.3230769 L54.9571679,84.3230769 L65.4690027,80.9075747 L74.4109035,74.4109035 L80.9075747,65.4690027 L84.3230769,54.9571679 L84.3230769,43.9043706 L80.9075747,33.3925358 L74.4109035,24.4506349 L65.4690027,17.9539637 L54.9571679,14.5384615 L43.9043706,14.5384615 Z M43.7766561,13.732104 L46.5230769,0 L52.3384615,0 L55.0848823,13.732104 L61.9403373,1.52078771 L67.4710967,3.31784039 L65.8396446,17.2265381 L76.1330739,7.73133822 L80.8378189,11.1495355 L74.9881918,23.8733467 L87.7120029,18.0237196 L91.1302002,22.7284646 L81.6350004,33.0218939 L95.5436981,31.3904418 L97.3407508,36.9212012 L85.1294344,43.7766561 L98.8615385,46.5230769 L98.8615385,52.3384615 L85.1294344,55.0848823 L97.3407508,61.9403373 L95.5436981,67.4710967 L81.6350004,65.8396446 L91.1302002,76.1330739 L87.7120029,80.8378189 L74.9881918,74.9881918 L80.8378189,87.7120029 L76.1330739,91.1302002 L65.8396446,81.6350004 L67.4710967,95.5436981 L61.9403373,97.3407508 L55.0848823,85.1294344 L52.3384615,98.8615385 L46.5230769,98.8615385 L43.7766561,85.1294344 L36.9212012,97.3407508 L31.3904418,95.5436981 L33.0218939,81.6350004 L22.7284646,91.1302002 L18.0237196,87.7120029 L23.8733467,74.9881918 L11.1495355,80.8378189 L7.73133822,76.1330739 L17.2265381,65.8396446 L3.31784039,67.4710967 L1.52078771,61.9403373 L13.732104,55.0848823 L6.12720374e-15,52.3384615 L5.05893491e-15,46.5230769 L13.732104,43.7766561 L1.52078771,36.9212012 L3.31784039,31.3904418 L17.2265381,33.0218939 L7.73133822,22.7284646 L11.1495355,18.0237196 L23.8733467,23.8733467 L18.0237196,11.1495355 L22.7284646,7.73133822 L33.0218939,17.2265381 L31.3904418,3.31784039 L36.9212012,1.52078771 L43.7766561,13.732104 Z" id="Rectangle-15" stroke="none" fill="#495B83" fill-rule="evenodd"></path>
                            <circle id="Oval-4-Copy-2" stroke="#495B83" stroke-width="4" fill="none" cx="49.4307692" cy="49.4307692" r="21.2615385"></circle>
                            <circle id="Oval-4-Copy-3" stroke="#495B83" stroke-width="4" fill="none" cx="49.4307692" cy="49.4307692" r="10.6"></circle>
                        </g>
                    </g>
                    <g id="Group-9-Copy" mask="url(#mask-2)">
                        <g transform="translate(-37.800000, -31.015385)">
                            <circle id="Oval-4" stroke="#495B83" stroke-width="10" fill="none" cx="49.4307692" cy="49.4307692" r="35.7076923"></circle>
                            <path d="M43.9043706,14.5384615 L33.3925358,17.9539637 L24.4506349,24.4506349 L17.9539637,33.3925358 L14.5384615,43.9043706 L14.5384615,54.9571679 L17.9539637,65.4690027 L24.4506349,74.4109035 L33.3925358,80.9075747 L43.9043706,84.3230769 L54.9571679,84.3230769 L65.4690027,80.9075747 L74.4109035,74.4109035 L80.9075747,65.4690027 L84.3230769,54.9571679 L84.3230769,43.9043706 L80.9075747,33.3925358 L74.4109035,24.4506349 L65.4690027,17.9539637 L54.9571679,14.5384615 L43.9043706,14.5384615 Z M43.7766561,13.732104 L46.5230769,0 L52.3384615,0 L55.0848823,13.732104 L61.9403373,1.52078771 L67.4710967,3.31784039 L65.8396446,17.2265381 L76.1330739,7.73133822 L80.8378189,11.1495355 L74.9881918,23.8733467 L87.7120029,18.0237196 L91.1302002,22.7284646 L81.6350004,33.0218939 L95.5436981,31.3904418 L97.3407508,36.9212012 L85.1294344,43.7766561 L98.8615385,46.5230769 L98.8615385,52.3384615 L85.1294344,55.0848823 L97.3407508,61.9403373 L95.5436981,67.4710967 L81.6350004,65.8396446 L91.1302002,76.1330739 L87.7120029,80.8378189 L74.9881918,74.9881918 L80.8378189,87.7120029 L76.1330739,91.1302002 L65.8396446,81.6350004 L67.4710967,95.5436981 L61.9403373,97.3407508 L55.0848823,85.1294344 L52.3384615,98.8615385 L46.5230769,98.8615385 L43.7766561,85.1294344 L36.9212012,97.3407508 L31.3904418,95.5436981 L33.0218939,81.6350004 L22.7284646,91.1302002 L18.0237196,87.7120029 L23.8733467,74.9881918 L11.1495355,80.8378189 L7.73133822,76.1330739 L17.2265381,65.8396446 L3.31784039,67.4710967 L1.52078771,61.9403373 L13.732104,55.0848823 L6.12720374e-15,52.3384615 L5.05893491e-15,46.5230769 L13.732104,43.7766561 L1.52078771,36.9212012 L3.31784039,31.3904418 L17.2265381,33.0218939 L7.73133822,22.7284646 L11.1495355,18.0237196 L23.8733467,23.8733467 L18.0237196,11.1495355 L22.7284646,7.73133822 L33.0218939,17.2265381 L31.3904418,3.31784039 L36.9212012,1.52078771 L43.7766561,13.732104 Z" id="Rectangle-15" stroke="none" fill="#495B83" fill-rule="evenodd"></path>
                            <circle id="Oval-4-Copy" stroke="none" fill="#495B83" fill-rule="evenodd" cx="49.4307692" cy="49.4307692" r="12.6"></circle>
                        </g>
                    </g>
                    <rect id="Rectangle-10" fill="#FFFFFF" mask="url(#mask-2)" x="41.6769231" y="34.8923077" width="38.7692308" height="52.3384615"></rect>
                    <rect id="Rectangle-10-Copy-2" fill="#FFFFFF" mask="url(#mask-2)" x="44.5846154" y="116.307692" width="32.9538462" height="44.5846154"></rect>
                    <rect id="Rectangle-10-Copy" fill="#FFFFFF" mask="url(#mask-2)" x="44.5846154" y="-38.7692308" width="32.9538462" height="44.5846154"></rect>
                    <rect id="Rectangle-13" fill="#CCCCCC" mask="url(#mask-2)" x="47.4923077" y="49.4307692" width="27.1384615" height="1.93846154"></rect>
                    <rect id="Rectangle-13-Copy-7" fill="#CCCCCC" mask="url(#mask-2)" x="47.4923077" y="41.6769231" width="4.84615385" height="4.84615385"></rect>
                    <rect id="Rectangle-13-Copy" fill="#CCCCCC" mask="url(#mask-2)" x="47.4923077" y="54.2769231" width="27.1384615" height="1.93846154"></rect>
                    <rect id="Rectangle-13-Copy-2" fill="#CCCCCC" mask="url(#mask-2)" x="47.4923077" y="59.1230769" width="27.1384615" height="1.93846154"></rect>
                    <rect id="Rectangle-13-Copy-3" fill="#CCCCCC" mask="url(#mask-2)" x="47.4923077" y="63.9692308" width="27.1384615" height="1.93846154"></rect>
                    <rect id="Rectangle-13-Copy-4" fill="#CCCCCC" mask="url(#mask-2)" x="47.4923077" y="68.8153846" width="27.1384615" height="1.93846154"></rect>
                    <rect id="Rectangle-13-Copy-5" fill="#CCCCCC" mask="url(#mask-2)" x="47.4923077" y="73.6615385" width="27.1384615" height="1.93846154"></rect>
                    <rect id="Rectangle-13-Copy-6" fill="#CCCCCC" mask="url(#mask-2)" x="47.4923077" y="78.5076923" width="27.1384615" height="1.93846154"></rect>
                    <rect id="Rectangle-14" fill="url(#linearGradient-3)" mask="url(#mask-2)" x="-61.0615385" y="51.3692308" width="249.092308" height="48.4615385"></rect>
                    <rect id="Rectangle-14-Copy" fill="#18CBFF" mask="url(#mask-2)" x="-61.0615385" y="51.3692308" width="249.092308" height="1"></rect>
                </g>
            </g>
        </g>
    </g>
</svg>