<svg t="1587019377998" class="icon" viewBox="0 0 1024 1024" version="1.1" xmlns="http://www.w3.org/2000/svg" p-id="2007" width="200" height="200"><path d="M640 896 256 896c-140.8 0-256-115.2-256-256 0-147.2 128-268.8 281.6-256C332.8 230.4 473.6 128 640 128c211.2 0 384 172.8 384 384S851.2 896 640 896zM256 512c-70.4 0-128 57.6-128 128 0 70.4 57.6 128 128 128l384 0c140.8 0 256-115.2 256-256 0-140.8-115.2-256-256-256C512 256 409.6 345.6 390.4 473.6L377.6 550.4 300.8 518.4C288 512 268.8 512 256 512z" p-id="2008" fill="#8a8a8a"></path></svg>