<svg t="1586781364679" class="icon" viewBox="0 0 1024 1024" version="1.1" xmlns="http://www.w3.org/2000/svg" p-id="17648" width="32" height="32"><path d="M363.52 433.2288a38.4 38.4 0 1 0-54.3232 54.2976l167.3216 167.296a37.0176 37.0176 0 0 0 8.4224 5.5808 37.4272 37.4272 0 0 0 15.9232 5.12c0.9472 0 1.8432 0.5632 2.7904 0.5632a38.4 38.4 0 0 0 27.1616-11.2384L885.76 299.9296a38.4 38.4 0 0 0-54.2976-54.3232l-327.68 327.68z m570.88 40.32A38.4 38.4 0 0 0 896 512 384 384 0 1 1 512 128a389.7344 389.7344 0 0 1 75.904 7.4752 38.4 38.4 0 1 0 15.0784-75.2896A460.8 460.8 0 1 0 972.8 512a38.4 38.4 0 0 0-38.4-38.4z" fill="#333333" p-id="17649"></path></svg>