<svg t="1586942326690" class="icon" viewBox="0 0 1024 1024" version="1.1" xmlns="http://www.w3.org/2000/svg" p-id="52038" width="32" height="32"><path d="M591.189333 134.741333c0 74.410667-60.16 134.741333-134.4 134.741334S322.474667 209.066667 322.474667 134.741333 382.634667 0 456.704 0c74.24 0 134.485333 60.330667 134.485333 134.741333z m150.442667 239.786667c30.976 0 62.037333-11.861333 85.589333-35.498667a121.514667 121.514667 0 0 0 0-171.52 120.32 120.32 0 0 0-85.589333-35.413333c-30.890667 0-61.781333 11.861333-85.333333 35.498667a121.514667 121.514667 0 0 0 0 171.52c23.637333 23.552 54.528 35.413333 85.333333 35.413333z m133.973333 53.504a107.861333 107.861333 0 0 0 0 215.722667c59.392 0 107.434667-48.298667 107.434667-107.946667 0-59.562667-48.042667-107.776-107.52-107.776zM741.717333 730.453333a94.378667 94.378667 0 0 0 0 188.586667 94.464 94.464 0 0 0 66.56-161.024 94.378667 94.378667 0 0 0-66.56-27.562667z m-285.013333 131.925334A80.810667 80.810667 0 0 0 456.96 1024a80.810667 80.810667 0 1 0 0-161.621333z m-285.013333-104.789334a67.498667 67.498667 0 0 0 0 134.826667c17.066667 0 34.389333-6.485333 47.530666-19.626667a67.584 67.584 0 0 0-47.530666-115.2zM53.76 485.205333a53.76 53.76 0 1 0 0 107.52 53.76 53.76 0 0 0 0-107.52zM171.690667 293.546667c2.56 0 5.12-1.024 7.68-1.450667a39.765333 39.765333 0 0 0 20.906666-10.410667 40.533333 40.533333 0 0 0-28.586666-69.12 40.362667 40.362667 0 0 0 0 80.981334z" p-id="52039" fill="#ffffff"></path></svg>