<svg t="1586852512788" class="icon" viewBox="0 0 1024 1024" version="1.1" xmlns="http://www.w3.org/2000/svg" p-id="30338" width="32" height="32"><path d="M937.599201 946.333483h49.815109c13.055347 0 25.086746 7.423629 31.640018 19.40383a40.906755 40.906755 0 0 1 0 38.80766 36.19659 36.19659 0 0 1-31.640018 19.40383H36.575452C16.403661 1023.948803 0.02048 1006.541673 0.02048 985.141143c0-21.451727 16.383181-38.80766 36.554972-38.80766h34.763062V256.80636c0-50.531873 30.667267-95.227239 75.925804-110.791261l416.695965-142.840858a58.0067 58.0067 0 0 1 54.576471 9.21554c15.768812 12.184991 25.086746 31.640018 25.086746 52.323783v290.187091l257.676716 192.092795c22.782861 16.946353 36.350182 44.644168 36.350183 74.133894v325.206139h-0.051198z m-73.109944 0v-325.206139a13.20894 13.20894 0 0 0-5.170942-10.59787l-215.746013-160.759962v496.563971h220.916955zM570.513555 375.584421V82.530273L169.688797 219.893005a38.654067 38.654067 0 0 0-25.291536 36.913355v689.527123h426.116294V375.584421z m-295.665216 421.20134c-20.171791 0-36.554972-17.40713-36.554973-38.80766 0-21.451727 16.383181-38.80766 36.554973-38.80766h170.538673c20.171791 0 36.554972 17.40713 36.554972 38.80766 0 21.451727-16.383181 38.80766-36.554972 38.80766H274.848339z m0-201.871507c-20.171791 0-36.554972-17.40713-36.554973-38.807659 0-21.451727 16.383181-38.80766 36.554973-38.80766h170.538673c20.171791 0 36.554972 17.355932 36.554972 38.80766 0 21.40053-16.383181 38.80766-36.554972 38.807659H274.848339z m0-201.922704c-20.171791 0-36.554972-17.40713-36.554973-38.807659 0-21.451727 16.383181-38.80766 36.554973-38.80766h170.538673c20.171791 0 36.554972 17.40713 36.554972 38.80766s-16.383181 38.80766-36.554972 38.807659H274.848339z m427.857007 403.794211c-20.171791 0-36.554972-17.355932-36.554972-38.80766 0-21.40053 16.383181-38.756462 36.554972-38.756462h97.428728c20.222989 0 36.554972 17.355932 36.554973 38.756462 0 21.451727-16.383181 38.80766-36.554973 38.80766h-97.428728z" p-id="30339"></path></svg>