<svg t="1586852429192" class="icon" viewBox="0 0 1024 1024" version="1.1" xmlns="http://www.w3.org/2000/svg" p-id="29566" width="32" height="32"><path d="M731.5 451.7c0 21.5 14.3 35.9 35.9 35.9 21.5 0 35.9-14.3 35.9-35.9C803 333 706.8 236.8 588 236.4c-21.5 0-35.9 14.3-35.9 35.9s14.4 35.9 35.9 35.9c79.2 0.1 143.3 64.3 143.5 143.5z m143.6 0c0 21.5 14.3 35.9 35.9 35.9s35.9-14.3 35.9-35.9c0-197.3-161.5-358.8-358.8-358.8-21.5 0-35.9 14.4-35.9 35.9s14.4 35.9 35.9 35.9c157.8-0.1 287 129.1 287 287zM390.7 326.1c39.5-39.4 43.1-100.5 7.2-143.5L286.7 42.7c-35.9-46.6-104-53.8-150.7-18-3.6 3.6-7.1 3.6-7.1 7.2L32 128.8c-93.3 93.3 39.5 344.4 279.9 584.8C552.2 954 799.7 1083.2 893 993.5l96.9-96.9c43.1-43.1 43.1-111.2 0-150.7l-7.1-7.2-140-111.2c-43-35.9-104-32.3-143.5 7.2l-61 61c-64.6-39.5-122-82.6-172.3-132.8-50.2-50.3-93.2-107.7-132.7-172.3l57.4-64.5z m-50.2-96.9c10.8 14.4 10.8 35.9-3.6 46.7L258 358.4c-11.2 11.4-14 28.6-7.1 43.1 42.3 77.7 95.5 149 157.9 211.6 62.7 62.4 134 115.6 211.6 157.9 14.4 6.9 31.6 4 43.1-7.2l82.5-82.5c14.4-14.3 32.3-14.3 46.7-3.6l139.9 114.8s3.6 0 3.6 3.6c13.9 13.2 14.4 35.1 1.2 49l-1.2 1.2-96.9 96.9c-46.6 46.6-269-71.8-480.7-279.9-211.8-208.1-326.7-434.1-280-480.7L179 82.1c14.4-10.8 39.5-10.8 50.3 7.2l111.2 139.9z" fill="#2C2C2C" p-id="29567"></path></svg>