<svg t="1586852698489" class="icon" viewBox="0 0 1024 1024" version="1.1" xmlns="http://www.w3.org/2000/svg" p-id="31222" width="32" height="32"><path d="M271.872 833.536c14.336 0 25.6-11.264 25.6-25.6 0-114.688 93.184-211.968 207.872-215.04h13.312c114.688 3.072 208.896 99.328 208.896 215.04 0 14.336 11.264 25.6 25.6 25.6s25.6-11.264 25.6-25.6c0-35.84-7.168-70.656-20.48-103.424-13.312-31.744-32.768-60.416-57.344-83.968-24.576-24.576-53.248-43.008-83.968-57.344-2.048-1.024-3.072-1.024-5.12-2.048 7.168-5.12 14.336-11.264 20.48-17.408 31.744-31.744 49.152-74.752 49.152-119.808 0-45.056-17.408-88.064-49.152-119.808-31.744-31.744-74.752-49.152-119.808-49.152-45.056 0-88.064 17.408-119.808 49.152-31.744 31.744-49.152 74.752-49.152 119.808 0 45.056 17.408 88.064 49.152 119.808 6.144 6.144 13.312 12.288 20.48 17.408-1.024 1.024-3.072 2.048-4.096 2.048-31.744 13.312-60.416 32.768-83.968 57.344-24.576 24.576-43.008 53.248-57.344 83.968-14.336 32.768-20.48 67.584-20.48 103.424-1.024 14.336 10.24 25.6 24.576 25.6z m121.856-409.6c0-65.536 53.248-118.784 118.784-118.784s117.76 53.248 117.76 118.784c0 63.488-49.152 115.712-111.616 118.784h-13.312c-62.464-3.072-111.616-55.296-111.616-118.784z" p-id="31223"></path><path d="M862.72 64.512h-67.584c-14.336 0-25.6 11.264-25.6 25.6s11.264 25.6 25.6 25.6h67.584c21.504 0 37.888 17.408 37.888 37.888v780.288c0 21.504-17.408 37.888-37.888 37.888H160.256c-20.48 0-37.888-17.408-37.888-37.888V154.624c0-21.504 17.408-37.888 37.888-37.888h67.584c14.336 0 25.6-11.264 25.6-25.6s-11.264-25.6-25.6-25.6h-67.584c-49.152-1.024-89.088 38.912-89.088 89.088v780.288c0 49.152 39.936 89.088 89.088 89.088H862.72c49.152 0 89.088-39.936 89.088-89.088V154.624c1.024-50.176-38.912-90.112-89.088-90.112z" p-id="31224"></path><path d="M407.04 115.712h209.92c14.336 0 25.6-11.264 25.6-25.6s-11.264-25.6-25.6-25.6H407.04c-14.336 0-25.6 11.264-25.6 25.6s11.264 25.6 25.6 25.6z m300.032 64.512c14.336 0 25.6-11.264 25.6-25.6V25.6c0-14.336-11.264-25.6-25.6-25.6s-25.6 11.264-25.6 25.6v129.024c-1.024 14.336 11.264 25.6 25.6 25.6z m-390.144 2.048c14.336 0 25.6-11.264 25.6-25.6V26.624c0-14.336-11.264-25.6-25.6-25.6s-25.6 11.264-25.6 25.6v129.024c0 14.336 11.264 26.624 25.6 26.624z" p-id="31225"></path></svg>