<svg t="1586856024154" class="icon" viewBox="0 0 1024 1024" version="1.1" xmlns="http://www.w3.org/2000/svg" p-id="40576" width="32" height="32"><path d="M512 573.44c-124.928 0-225.28-100.352-225.28-225.28S387.072 122.88 512 122.88s225.28 100.352 225.28 225.28-100.352 225.28-225.28 225.28z m0-368.64c-79.872 0-143.36 63.488-143.36 143.36s63.488 143.36 143.36 143.36 143.36-63.488 143.36-143.36-63.488-143.36-143.36-143.36z" fill="#2c2c2c" p-id="40577"></path><path d="M860.16 839.68h-81.92c0-147.456-118.784-266.24-266.24-266.24s-266.24 118.784-266.24 266.24H163.84c0-192.512 155.648-348.16 348.16-348.16s348.16 155.648 348.16 348.16z" fill="#2c2c2c" p-id="40578"></path></svg>