<svg t="1586852985643" class="icon" viewBox="0 0 1024 1024" version="1.1" xmlns="http://www.w3.org/2000/svg" p-id="33392" width="32" height="32"><path d="M96 319.848C96 266.918 139.08 224 192.375 224h639.25C884.882 224 928 266.94 928 319.848v415.61c0 52.93-43.08 95.849-96.375 95.849h-639.25c-53.257 0-96.375-42.94-96.375-95.848V319.848z m-64 0v415.61c0 88.315 71.83 159.849 160.375 159.849h639.25c88.587 0 160.375-71.518 160.375-159.848V319.848C992 231.534 920.17 160 831.625 160h-639.25C103.788 160 32 231.517 32 319.848z m35.209-24.608c2.46 2.27 7.038 6.434 13.508 12.221a2453.543 2453.543 0 0 0 36.25 31.763c38.192 32.834 78.478 65.672 119.079 96.377 28.151 21.29 55.498 40.814 81.738 58.192 84.306 55.833 152.547 87.097 204.152 86.636 50.511-0.45 115-30.223 193.106-82.845 27.3-18.394 55.787-39.325 85.115-62.326 39.196-30.74 77.945-63.612 114.581-96.48a2265.139 2265.139 0 0 0 34.74-31.798c6.197-5.797 10.58-9.97 12.939-12.25l-44.482-46.015c-8.675 8.386-24.564 23.252-45.935 42.425-35.654 31.986-73.356 63.97-111.339 93.759-28.183 22.103-55.449 42.137-81.38 59.607-68.232 45.972-123.792 71.62-157.916 71.925-34.664 0.31-94.22-26.975-168.244-75.998-25.052-16.59-51.328-35.35-78.47-55.878-39.438-29.825-78.716-61.841-115.963-93.862-22.327-19.195-38.967-34.081-48.077-42.487L67.21 295.24z" p-id="33393"></path></svg>