<svg t="1587371699772" class="icon" viewBox="0 0 1157 1024" version="1.1" xmlns="http://www.w3.org/2000/svg" p-id="6518" width="200" height="200"><path d="M387.973659 499.476952C269.606773 499.476952 170.98777 400.857949 170.98777 282.491063c0-118.366886 98.619003-216.985889 216.985889-216.985889 118.366886 0 216.985889 92.116651 216.985889 216.985889 0 124.989652-98.619003 216.985889-216.985889 216.985889z m0-45.998119c92.116651 0 170.98777-78.871119 170.987771-170.98777s-78.871119-170.98777-170.987771-170.98777-170.98777 72.368768-170.98777 170.98777 78.991533 170.98777 170.98777 170.98777z m387.97366 506.340546H0v-32.873001C0 716.462841 170.98777 538.972719 387.973659 538.972719s387.973659 170.98777 387.97366 387.973659v32.873001zM387.973659 584.970837c-184.112888 0-328.850423 144.617121-341.97554 322.227658h677.328316c0-177.490122-151.239887-322.227658-335.352776-322.227658z m427.469427-78.871119c-105.241769 0-190.735654-85.493885-190.735654-190.735654s85.493885-190.735654 190.735654-190.735654 190.735654 85.493885 190.735653 190.735654-85.493885 190.735654-190.735653 190.735654z m0-45.998119c78.871119 0 144.617121-65.746002 144.617121-144.617121s-65.746002-144.617121-144.617121-144.617121S670.70555 236.613358 670.70555 315.484478c0.120414 78.871119 59.24365 144.617121 144.737536 144.617121z m0 0" fill="#e6e6e6" p-id="6519"></path><path d="M1157.418627 874.325494c0-190.735654-151.239887-341.975541-341.975541-341.975541-72.368768 0-138.11477 19.747883-190.735654 59.24365l-6.622766 6.622766c13.125118 13.125118 26.250235 19.747883 32.873001 32.873001 45.998119-32.873001 105.241769-45.998119 164.365005-45.998119 157.862653 0 289.354657 124.989652 295.977422 282.731891h-328.730009c0 13.125118 6.622766 32.873001 6.622765 45.998119h368.225777v-39.495767z m0 0" fill="#e6e6e6" p-id="6520"></path></svg>