<svg t="1587439849029" class="icon" viewBox="0 0 1024 1024" version="1.1" xmlns="http://www.w3.org/2000/svg" p-id="10898" width="200" height="200"><path d="M771.64544 406.64064c-17.778688-131.289088-137.259008-226.574336-273.027072-217.77408-135.768064 8.828928-241.174528 118.734848-240.87552 251.14624-111.972352 4.947968-198.627328 97.30048-193.529856 206.26432 5.050368 108.982272 99.960832 193.282048 211.931136 188.356608h460.838912c115.800064 0.499712 212.379648-86.009856 221.478912-198.352896 9.10336-112.32256-72.384512-212.48-186.816512-229.640192z m112.6912 284.493824c-26.333184 44.384256-94.68928 93.589504-147.378176 93.589504h-433.90976l0.024576 0.026624a37.18144 37.18144 0 0 0-12.181504 0h-14.372864c-71.266304 0-159.629312-58.281984-159.629312-147.42528 0-69.353472 77.43488-148.523008 148.701184-148.523008 71.112704 0.200704 127.086592 27.131904 161.460224 124.481536 7.165952 20.29568-0.5632 41.71776 10.06592 49.076224 4.734976 3.278848 24.403968 4.370432 31.326208-1.093632 5.203968-4.108288 10.459136-11.137024 10.459136-23.943168-0.149504-88.199168-82.15552-173.256704-169.310208-197.4272v-7.534592c0-99.067904 104.380416-193.589248 206.186496-193.589248 101.797888 0 195.231744 91.242496 195.231744 190.3104a35.36896 35.36896 0 0 0 10.815488 25.36448c6.909952 6.735872 16.287744 10.518528 26.058752 10.518528 52.688896-0.024576 101.351424 27.328512 127.709184 71.737344 26.341376 44.208128 35.084288 110.221312 8.742912 154.431488z" p-id="10899" fill="#1296db"></path></svg>