<svg t="1587375197465" class="icon" viewBox="0 0 1102 1024" version="1.1" xmlns="http://www.w3.org/2000/svg" p-id="9486" width="200" height="200"><path d="M153.284923 717.955282c5.566359-9.294769 14.834872-25.993846 22.265436-33.42441L806.806974 53.300513l111.405949 111.405949-631.256615 631.256615c-7.430564 7.430564-24.155897 16.699077-33.424411 22.265436l-154.098871 53.825641 53.825641-154.072616zM769.68041 16.147692L138.423795 647.404308C125.426872 660.401231 110.592 682.666667 105.025641 699.392l-64.984615 183.794872c-12.996923 35.288615 14.861128 63.12041 50.149743 50.149743l180.092718-65.010871c18.563282-7.404308 40.828718-22.265436 53.825641-35.262359L955.339487 201.806769a52.670359 52.670359 0 0 0 0-74.253128L843.933538 16.147692a52.670359 52.670359 0 0 0-74.253128 0z" fill="#ffffff" p-id="9487"></path><path d="M194.113641 665.96759l111.405949 111.405948-37.126564 37.126565-111.405949-111.405949 37.126564-37.126564zM751.117128 108.990359l111.379693 111.379692-37.126565 37.152821-111.405948-111.405949 37.15282-37.126564zM26.25641 971.487179h1050.256411c15.753846 0 26.25641 10.502564 26.25641 26.256411s-10.502564 26.25641-26.25641 26.25641H26.25641c-15.753846 0-26.25641-10.502564-26.25641-26.25641s10.502564-26.25641 26.25641-26.256411z" fill="#ffffff" p-id="9488"></path></svg>