<svg t="1587374308459" class="icon" viewBox="0 0 1024 1024" version="1.1" xmlns="http://www.w3.org/2000/svg" p-id="8058" width="200" height="200"><path d="M512 1024a512 512 0 1 1 512-512 512 512 0 0 1-512 512z m0-975.209412A463.230924 463.230924 0 1 0 975.209412 512 464.069916 464.069916 0 0 0 512 48.769076z" p-id="8059" fill="#ffffff"></path><path d="M549.367395 512l198.303193-198.303193a27.514622 27.514622 0 0 0 0-37.388908l-1.634958-1.634958a25.51395 25.51395 0 0 0-35.753949 0l-198.303194 199.916639-198.303193-198.303193a25.51395 25.51395 0 0 0-35.753949 0l-1.634958 1.634958a27.514622 27.514622 0 0 0 0 37.388907l198.303193 196.668235-198.303193 198.303194a27.514622 27.514622 0 0 0 0 37.388907l1.634958 1.634958a25.51395 25.51395 0 0 0 35.753949 0l198.303193-199.916638 198.303194 198.303193a25.51395 25.51395 0 0 0 35.753949 0l1.634958-1.634958a27.514622 27.514622 0 0 0 0-37.388908z" p-id="8060" fill="#ffffff"></path></svg>