<?xml version="1.0" encoding="UTF-8" standalone="no"?>
<svg width="24px" height="24px" viewBox="0 0 24 24" version="1.1" xmlns="http://www.w3.org/2000/svg" xmlns:xlink="http://www.w3.org/1999/xlink">
    <!-- Generator: Sketch 48.1 (47250) - http://www.bohemiancoding.com/sketch -->
    <title>日程生日</title>
    <desc>Created with Sketch.</desc>
    <defs></defs>
    <g id="Symbols" stroke="none" stroke-width="1" fill="none" fill-rule="evenodd">
        <g id="日程生日" fill="#FC6E51">
            <path d="M22,22 L19,22 L5,22 L2,22 C1.448,22 1,21.552 1,21 C1,20.448 1.448,20 2,20 L3,20 L3,14 C3,12.895 3.895,12 5,12 L7,12 L7,9 C7,8.448 7.448,8 8,8 C8.552,8 9,8.448 9,9 L9,12 L11,12 L11,9 C11,8.448 11.448,8 12,8 C12.552,8 13,8.448 13,9 L13,12 L15,12 L15,9 C15,8.448 15.448,8 16,8 C16.552,8 17,8.448 17,9 L17,12 L19,12 C20.104,12 21,12.895 21,14 L21,20 L22,20 C22.552,20 23,20.448 23,21 C23,21.552 22.552,22 22,22 Z M16,7 C13.781,7 16,2 16,2 C15.919,3.703 18.234,7 16,7 Z M12,7 C9.781,7 12,2 12,2 C11.919,3.703 14.234,7 12,7 Z M8,7 C5.781,7 8,2 8,2 C7.919,3.703 10.234,7 8,7 Z" id="Shape"></path>
        </g>
    </g>
</svg>