<svg t="1587376598400" class="icon" viewBox="0 0 1024 1024" version="1.1" xmlns="http://www.w3.org/2000/svg" p-id="6096" width="200" height="200"><path d="M512 512m-403.2 0a403.2 403.2 0 1 0 806.4 0 403.2 403.2 0 1 0-806.4 0Z" fill="#F9D65D" p-id="6097"></path><path d="M512 608c-19.2 0-38.4-19.2-38.4-38.4V288c0-19.2 19.2-38.4 38.4-38.4s38.4 19.2 38.4 38.4V576c0 12.8-19.2 32-38.4 32z" fill="#FFFFFF" p-id="6098"></path><path d="M512 736m-44.8 0a44.8 44.8 0 1 0 89.6 0 44.8 44.8 0 1 0-89.6 0Z" fill="#FFFFFF" p-id="6099"></path></svg>